<?xml version="1.0" standalone="no"?><!DOCTYPE svg PUBLIC "-//W3C//DTD SVG 1.1//EN" "http://www.w3.org/Graphics/SVG/1.1/DTD/svg11.dtd"><svg class="icon" width="200px" height="200.00px" viewBox="0 0 1024 1024" version="1.1" xmlns="http://www.w3.org/2000/svg"><path d="M513.28 950.75h-0.03c-20.25-0.01-39.17-8.26-53.28-23.24L150.11 598.42c-3.33-3.53-6.46-7.19-9.22-10.42-47.84-55.82-73.32-128.32-71.74-204.14 1.59-76.11 30.35-147.61 80.97-201.33 52.95-56.19 123.64-87.14 199.05-87.14 59.99 0 116.97 19.44 164.8 56.23 53.45-39.53 118.96-58.14 184.56-52.43 66.42 5.78 128.81 36.28 175.68 85.87l0.07 0.08c102.86 109.49 108.29 285.83 12.48 401.82-4.23 5.52-8.41 9.96-12.46 14.26l-0.07 0.08-307.69 326.25c-14.11 14.96-33.02 23.19-53.26 23.2z m-164.11-783c-55.26 0-107.25 22.87-146.39 64.4-78.42 83.23-81.54 221.74-6.94 308.77 2.37 2.77 4.8 5.61 6.96 7.9L512.65 877.9c0.36 0.38 0.58 0.48 0.63 0.48 0.04 0 0.26-0.1 0.62-0.48l307.69-326.25c3.31-3.52 5.91-6.28 7.93-8.96l1.06-1.34c73.42-88.4 69.46-223.09-9.02-306.64-71.25-75.34-182.59-85.75-264.77-24.76-26.1 19.38-60.98 19.04-86.79-0.85-35.1-27.06-76.88-41.35-120.83-41.35z" fill="#231815" /><path d="M248.97 502.86c-11.88 0-22.77-7.87-26.08-19.88-15.24-55.22-8.07-113.08 20.2-162.9 28.27-49.83 74.25-85.66 129.47-100.91 14.41-3.98 29.32 4.48 33.3 18.89 3.98 14.41-4.48 29.32-18.89 33.3-85.22 23.52-135.41 111.99-111.88 197.2 3.98 14.41-4.48 29.32-18.89 33.3-2.42 0.68-4.84 1-7.23 1z" fill="#f7b52c" /></svg>