<?xml version="1.0" standalone="no"?><!DOCTYPE svg PUBLIC "-//W3C//DTD SVG 1.1//EN" "http://www.w3.org/Graphics/SVG/1.1/DTD/svg11.dtd"><svg class="icon" width="200px" height="200.00px" viewBox="0 0 1024 1024" version="1.1" xmlns="http://www.w3.org/2000/svg"><path d="M389.36 638.56v219.5H248.3c-43.25 0-78.44-35.19-78.44-78.44V638.56h219.5m78.44-78.44H91.43v219.5c0 86.64 70.23 156.87 156.87 156.87h219.5V560.12zM860.21 638.56v141.06c0 43.25-35.19 78.44-78.44 78.44H640.71v-219.5h219.5m78.44-78.44H562.28v376.37h219.5c86.64 0 156.87-70.23 156.87-156.87v-219.5z" fill="#231815" /><path d="M389.36 170.28v219.5h-219.5V248.71c0-43.25 35.19-78.44 78.44-78.44h141.06m78.44-78.43H248.3c-86.64 0-156.87 70.23-156.87 156.87v219.5H467.8V91.84z" fill="#f7b52c" /><path d="M781.78 170.28c43.25 0 78.44 35.19 78.44 78.44v141.06h-219.5v-219.5h141.06m0-78.44h-219.5v376.37h376.37v-219.5c0-86.64-70.24-156.87-156.87-156.87z" fill="#231815" /></svg>